<svg width="30" height="29" viewBox="0 0 30 29" fill="none" xmlns="http://www.w3.org/2000/svg">
<path d="M9.21802 5.40593C10.0488 5.40593 10.8162 5.46922 11.5204 5.65911C12.2245 5.78569 12.8021 6.04678 13.3163 6.36325C13.8306 6.67973 14.2104 7.1307 14.4714 7.70826C14.7246 8.28582 14.8591 8.98996 14.8591 9.75741C14.8591 10.6514 14.6692 11.4189 14.2183 11.9964C13.8306 12.574 13.1976 13.0883 12.4223 13.468C13.5141 13.7845 14.3449 14.3621 14.8512 15.1295C15.3576 15.8969 15.6819 16.8543 15.6819 17.9461C15.6819 18.8401 15.4921 19.6076 15.1677 20.2484C14.8512 20.8893 14.3369 21.4668 13.7594 21.8466C13.1818 22.2343 12.4777 22.5507 11.7102 22.7406C10.9428 22.9305 10.1753 23.0571 9.40791 23.0571L0.831543 23.0729V5.40593H9.21802ZM8.70376 12.574C9.40791 12.574 9.98547 12.3841 10.4285 12.0597C10.8716 11.7353 11.0694 11.1657 11.0694 10.4616C11.0694 10.0739 11.0061 9.69411 10.8795 9.44093C10.7529 9.18776 10.563 8.98996 10.3019 8.80008C10.0488 8.67349 9.78767 8.5469 9.4712 8.48361C9.15473 8.42032 8.83035 8.42032 8.45058 8.42032H4.73996V12.5819C4.73996 12.574 8.70376 12.574 8.70376 12.574ZM8.89364 20.1297C9.28132 20.1297 9.66108 20.0664 9.98547 20.0032C10.3019 19.9399 10.6263 19.8133 10.8795 19.6155C11.1327 19.4177 11.3305 19.2278 11.5204 18.9113C11.6469 18.5949 11.7735 18.2072 11.7735 17.7562C11.7735 16.8622 11.5204 16.2213 11.0061 15.7704C10.4918 15.3827 9.78767 15.1928 8.95694 15.1928H4.73996V20.1218H8.89364V20.1297Z" fill="currentColor"/>
<path d="M21.2518 20.0665C21.7661 20.5807 22.5335 20.8339 23.5542 20.8339C24.2583 20.8339 24.8992 20.644 25.4134 20.3196C25.9277 19.932 26.2442 19.5522 26.3708 19.1645H29.5038C28.9895 20.6994 28.2221 21.7912 27.2015 22.4954C26.1809 23.1362 24.9625 23.516 23.4909 23.516C22.4702 23.516 21.5683 23.3261 20.7376 23.0017C19.9068 22.6852 19.266 22.2343 18.6884 21.5934C18.1109 21.0159 17.6678 20.3117 17.4067 19.481C17.0902 18.6502 16.9557 17.7562 16.9557 16.7277C16.9557 15.7704 17.0823 14.8684 17.4067 14.0377C17.7311 13.2069 18.1742 12.5028 18.7517 11.8619C19.3293 11.2844 20.0334 10.7701 20.8009 10.4536C21.6316 10.1372 22.4623 9.93938 23.4909 9.93938C24.5827 9.93938 25.54 10.1293 26.3708 10.5802C27.2015 11.0312 27.8423 11.5376 28.3566 12.305C28.8709 13.0091 29.2506 13.8399 29.5117 14.7339C29.6383 15.6279 29.7016 16.5299 29.6383 17.5505H20.3578C20.3578 18.5949 20.7376 19.5522 21.2518 20.0665ZM25.2868 13.3414C24.8359 12.8905 24.1317 12.6373 23.301 12.6373C22.7234 12.6373 22.2804 12.7639 21.8927 12.9538C21.505 13.1436 21.2518 13.4047 20.9987 13.6579C20.7455 13.9111 20.611 14.2355 20.5477 14.5519C20.4844 14.8684 20.4211 15.1295 20.4211 15.3827H26.1809C26.0543 14.4333 25.7299 13.7924 25.2868 13.3414ZM19.6537 6.62434H26.8217V8.34911H19.6537V6.62434Z" fill="currentColor"/>
</svg>
