<svg width="16" height="16" viewBox="0 0 16 16" fill="none" xmlns="http://www.w3.org/2000/svg">
	<path d="M15.6964 4.99074L8.3839 0.115724C8.1343 -0.0378706 7.8679 -0.0392768 7.61605 0.115724L0.303562 4.99074C0.116062 5.11572 0 5.33897 0 5.56213V10.4371C0 10.6603 0.116063 10.8836 0.303593 11.0086L7.6161 15.8843C7.86565 16.0379 8.13205 16.0393 8.3839 15.8843L15.6964 11.0086C15.8839 10.8836 16 10.6603 16 10.4371V5.56213C16 5.33897 15.8839 5.11572 15.6964 4.99074ZM8.6875 1.97282L14.0714 5.56213L11.6697 7.16928L8.6875 5.17822V1.97282ZM7.3125 1.97282V5.17822L4.33034 7.16928L1.92856 5.56213L7.3125 1.97282ZM1.37499 6.84788L3.09822 7.99964L1.37499 9.15144V6.84788ZM7.3125 14.0265L1.92856 10.4371L4.33034 8.82999L7.3125 10.8211V14.0265ZM8 9.62465L5.5714 7.99964L8 6.37463L10.4285 7.99964L8 9.62465ZM8.6875 14.0265V10.8211L11.6697 8.82999L14.0714 10.4371L8.6875 14.0265ZM14.625 9.15144L12.9017 7.99964L14.625 6.84788V9.15144Z" fill="currentColor" />
</svg>
