<svg width="29" height="29" viewBox="0 0 29 29" fill="none" xmlns="http://www.w3.org/2000/svg">
<path d="M14.4158 0C6.45107 0 0 6.45107 0 14.4158C0 20.7948 4.12652 26.1827 9.8568 28.0928C10.5776 28.2189 10.8479 27.7865 10.8479 27.408C10.8479 27.0657 10.8299 25.9304 10.8299 24.7231C7.2079 25.3898 6.27087 23.8401 5.98256 23.0292C5.82038 22.6148 5.11761 21.3354 4.50494 20.993C4.00038 20.7227 3.27959 20.056 4.48692 20.038C5.62216 20.0199 6.43305 21.0831 6.70335 21.5156C8.00077 23.696 10.073 23.0833 10.9019 22.7049C11.0281 21.7679 11.4065 21.1372 11.821 20.7768C8.61344 20.4164 5.26177 19.173 5.26177 13.659C5.26177 12.0913 5.82038 10.7938 6.73939 9.78472C6.59523 9.42433 6.09068 7.94671 6.88354 5.96454C6.88354 5.96454 8.09087 5.58612 10.8479 7.44216C12.0012 7.1178 13.2265 6.95562 14.4518 6.95562C15.6772 6.95562 16.9025 7.1178 18.0558 7.44216C20.8128 5.5681 22.0201 5.96454 22.0201 5.96454C22.813 7.94671 22.3085 9.42433 22.1643 9.78472C23.0833 10.7938 23.6419 12.0732 23.6419 13.659C23.6419 19.191 20.2722 20.4164 17.0647 20.7768C17.5873 21.2273 18.0378 22.0922 18.0378 23.4437C18.0378 25.3718 18.0198 26.9215 18.0198 27.408C18.0198 27.7865 18.29 28.2369 19.0108 28.0928C21.8726 27.1267 24.3594 25.2874 26.1211 22.8339C27.8829 20.3805 28.8308 17.4363 28.8316 14.4158C28.8316 6.45107 22.3805 0 14.4158 0Z" fill="currentColor"/>
</svg>
